<svg width="22" height="14" viewBox="0 0 22 14" fill="none" xmlns="http://www.w3.org/2000/svg">
<path d="M10.6895 8.29297C10.6895 9.06771 10.5755 9.76107 10.3477 10.373C10.1198 10.985 9.78451 11.5026 9.3418 11.9258C8.89909 12.349 8.35221 12.6712 7.70117 12.8926C7.05013 13.1139 6.30143 13.2246 5.45508 13.2246C4.66081 13.2246 3.94792 13.127 3.31641 12.9316C2.6849 12.7298 2.15104 12.4271 1.71484 12.0234C1.27865 11.6198 0.943359 11.1185 0.708984 10.5195C0.48112 9.91406 0.367188 9.20768 0.367188 8.40039V0.714844C0.367188 0.64974 0.386719 0.591146 0.425781 0.539062C0.464844 0.486979 0.533203 0.444661 0.630859 0.412109C0.735026 0.379557 0.86849 0.353516 1.03125 0.333984C1.19401 0.314453 1.40234 0.304688 1.65625 0.304688C1.90365 0.304688 2.10872 0.314453 2.27148 0.333984C2.43424 0.353516 2.56445 0.379557 2.66211 0.412109C2.75977 0.444661 2.82812 0.486979 2.86719 0.539062C2.91276 0.591146 2.93555 0.64974 2.93555 0.714844V8.17578C2.93555 8.67708 2.9974 9.11328 3.12109 9.48438C3.24479 9.84896 3.42057 10.1517 3.64844 10.3926C3.88281 10.6335 4.15951 10.8158 4.47852 10.9395C4.80404 11.0566 5.16536 11.1152 5.5625 11.1152C5.96615 11.1152 6.32747 11.0534 6.64648 10.9297C6.96549 10.806 7.23568 10.627 7.45703 10.3926C7.67839 10.1517 7.84766 9.85872 7.96484 9.51367C8.08854 9.16211 8.15039 8.76497 8.15039 8.32227V0.714844C8.15039 0.64974 8.16992 0.591146 8.20898 0.539062C8.24805 0.486979 8.31641 0.444661 8.41406 0.412109C8.51172 0.379557 8.64193 0.353516 8.80469 0.333984C8.97396 0.314453 9.18229 0.304688 9.42969 0.304688C9.67708 0.304688 9.87891 0.314453 10.0352 0.333984C10.1979 0.353516 10.3281 0.379557 10.4258 0.412109C10.5234 0.444661 10.5918 0.486979 10.6309 0.539062C10.6699 0.591146 10.6895 0.64974 10.6895 0.714844V8.29297ZM21.207 11.9844C21.207 12.1732 21.1973 12.3327 21.1777 12.4629C21.1647 12.5931 21.1419 12.7005 21.1094 12.7852C21.0768 12.8633 21.0345 12.9186 20.9824 12.9512C20.9368 12.9837 20.8848 13 20.8262 13H13.375C13.1146 13 12.9128 12.9251 12.7695 12.7754C12.6328 12.6257 12.5645 12.4076 12.5645 12.1211V11.6914C12.5645 11.5612 12.571 11.444 12.584 11.3398C12.6035 11.2292 12.6328 11.1185 12.6719 11.0078C12.7109 10.8971 12.7663 10.7767 12.8379 10.6465C12.916 10.5163 13.0104 10.36 13.1211 10.1777L18.0234 2.4043H13.1602C13.082 2.4043 13.0137 2.38802 12.9551 2.35547C12.903 2.31641 12.8574 2.25781 12.8184 2.17969C12.7858 2.10156 12.7598 1.9974 12.7402 1.86719C12.7272 1.73698 12.7207 1.58073 12.7207 1.39844C12.7207 1.20312 12.7272 1.04036 12.7402 0.910156C12.7598 0.773438 12.7858 0.666016 12.8184 0.587891C12.8574 0.503255 12.903 0.444661 12.9551 0.412109C13.0137 0.379557 13.082 0.363281 13.1602 0.363281H20.1426C20.4095 0.363281 20.6048 0.431641 20.7285 0.568359C20.8587 0.705078 20.9238 0.897135 20.9238 1.14453V1.62305C20.9238 1.79883 20.9141 1.95182 20.8945 2.08203C20.8815 2.20573 20.8522 2.32943 20.8066 2.45312C20.7676 2.57031 20.7122 2.69401 20.6406 2.82422C20.569 2.94792 20.4779 3.09766 20.3672 3.27344L15.543 10.9395H20.8262C20.9499 10.9395 21.0443 11.0176 21.1094 11.1738C21.1745 11.3301 21.207 11.6003 21.207 11.9844Z" fill="white"/>
</svg>
